<?xml version="1.0" encoding="UTF-8" standalone="no"?>
<!-- Created with Inkscape (http://www.inkscape.org/) -->

<svg
   width="120"
   height="120"
   viewBox="0 0 120 120"
   version="1.1"
   id="svg1"
   xml:space="preserve"
   sodipodi:docname="icon4.svg"
   inkscape:version="1.3.1 (91b66b0783, 2023-11-16, custom)"
   xmlns:inkscape="http://www.inkscape.org/namespaces/inkscape"
   xmlns:sodipodi="http://sodipodi.sourceforge.net/DTD/sodipodi-0.dtd"
   xmlns="http://www.w3.org/2000/svg"
   xmlns:svg="http://www.w3.org/2000/svg"><sodipodi:namedview
     id="namedview1"
     pagecolor="#8a8a8a"
     bordercolor="#000000"
     borderopacity="0.25"
     inkscape:showpageshadow="2"
     inkscape:pageopacity="0.0"
     inkscape:pagecheckerboard="0"
     inkscape:deskcolor="#d1d1d1"
     inkscape:zoom="2.9241648"
     inkscape:cx="-18.295822"
     inkscape:cy="77.970982"
     inkscape:window-width="1906"
     inkscape:window-height="1027"
     inkscape:window-x="0"
     inkscape:window-y="0"
     inkscape:window-maximized="1"
     inkscape:current-layer="svg1" /><defs
     id="defs1" /><circle
     style="fill:#131316;stroke-width:0.990139;stroke-linecap:round;stroke-linejoin:round;fill-opacity:1"
     id="path3"
     cx="60"
     cy="60"
     r="60" /><g
     id="layer2"
     style="display:inline"
     transform="matrix(0.75,0,0,0.75,14.753511,15)"><g
       id="g7"
       transform="translate(-0.20209204,0.0786)"><path
         style="display:inline;fill:#ffffff;fill-opacity:1;stroke:#ffffff;stroke-width:6;stroke-linecap:butt;stroke-linejoin:round;stroke-dasharray:none;stroke-opacity:1"
         d="M 25.729578,78.80421 C 19.377124,70.914534 10.229587,63.169074 5.1566477,59.705204 -0.66034771,55.733283 8.3888557,58.457685 9.3845311,57.478628 10.380205,56.49957 8.5450277,50.223334 11.439428,53.555117 c 2.894395,3.331784 22.276552,23.480049 39.104827,9.896406 8.371321,-6.757262 3.252186,-17.45212 15.277925,-22.140425 5.275646,-2.056742 7.688321,0.39708 11.022552,-1.197219 3.489921,-1.668743 8.21868,-8.193385 8.21868,-8.193385 0,0 -3.493362,7.273726 -3.885621,11.277384 -0.985057,10.054137 12.43846,24.141031 1.187521,39.457268 C 74.044583,93.982402 51.3916,102.80046 32.998485,86.961997"
         id="path1" /><path
         style="display:inline;fill:#131316;fill-opacity:1;stroke:#ffffff;stroke-width:6;stroke-linecap:butt;stroke-dasharray:none;stroke-opacity:1"
         d="M 43.933846,67.25343 C 32.676026,73.197089 12.989901,87.816518 17.478906,87.680368 30.07273,87.196306 35.215514,87.292159 50.559032,86.415744 61.838027,85.771492 73.70777,77.004709 70.431687,66.218608 Z"
         id="path2"
         sodipodi:nodetypes="ccscc" /><circle
         style="display:inline;fill:#000000;fill-opacity:1;stroke:none;stroke-width:1;stroke-dasharray:none;stroke-opacity:1"
         id="path4"
         cx="69.992538"
         cy="48.72686"
         r="3.5" /><path
         style="fill:none;fill-opacity:1;stroke:#ffffff;stroke-width:6;stroke-dasharray:none;stroke-opacity:1"
         d="m 49.881909,95.512884 c 0,0 -3.870355,3.11361 -2.618972,4.341746 5.20028,4.99476 13.814136,15.13474 13.814136,15.13474"
         id="path5" /><path
         style="fill:none;fill-opacity:1;stroke:#ffffff;stroke-width:6;stroke-linecap:round;stroke-dasharray:none;stroke-opacity:1"
         d="m 53.60675,116.9214 c 7.507558,-2.1362 7.272687,-2.19134 15.182039,-1.55797"
         id="path6" /><path
         style="display:inline;fill:none;fill-opacity:1;stroke:#ffffff;stroke-width:6;stroke-dasharray:none;stroke-opacity:1"
         d="m 61.264173,95.507027 c 0,0 -3.870354,3.113609 -2.61898,4.341747 5.200285,4.994756 13.814137,15.134746 13.814137,15.134746"
         id="path5-5" /><path
         style="display:inline;fill:none;fill-opacity:1;stroke:#ffffff;stroke-width:6;stroke-linecap:round;stroke-dasharray:none;stroke-opacity:1"
         d="m 64.989013,116.91554 c 7.507559,-2.13619 7.272687,-2.19134 15.182039,-1.55796"
         id="path6-0" /></g><g
       style="fill:none;stroke:#ffffff;stroke-width:2;stroke-linecap:round;stroke-linejoin:round;stroke-opacity:1"
       id="g6"
       transform="matrix(2.2004603,0,0,2.2004603,80.348266,-10.737868)"><path
         d="m 9,18 c 0,-3.313708 2.686292,-6 6,-6 -3.313708,0 -6,-2.6862915 -6,-6 0,3.3137085 -2.6862915,6 -6,6 3.3137085,0 6,2.686292 6,6 z"
         id="path2-6"
         style="stroke:#ffffff;stroke-width:2.27225;stroke-dasharray:none;stroke-opacity:1" /><path
         d="m -15.125444,16.1989 c 1.392265,0 2.52092,1.128654 2.52092,2.52092 0,-1.392266 1.128654,-2.52092 2.520919,-2.52092 -1.392265,0 -2.520919,-1.128654 -2.520919,-2.52092 0,1.392266 -1.128655,2.52092 -2.52092,2.52092 z"
         id="path1-6"
         style="display:inline;fill:none;stroke:#ffffff;stroke-width:1.8178;stroke-linecap:round;stroke-linejoin:round;stroke-dasharray:none;stroke-opacity:1" /><path
         d="m 106.93371,53.366155 c 3.06362,0 5.54718,2.483559 5.54718,5.547184 0,-3.063625 2.48356,-5.547184 5.54719,-5.547184 -3.06363,0 -5.54719,-2.483559 -5.54719,-5.547184 0,3.063625 -2.48356,5.547184 -5.54718,5.547184 z"
         id="path1-6-4"
         style="display:inline;fill:none;stroke:#ffffff;stroke-width:4;stroke-linecap:round;stroke-linejoin:round;stroke-dasharray:none;stroke-opacity:1"
         transform="matrix(0.45445037,0,0,0.45445037,-36.514297,5.0412561)" /><path
         d="m -5.8993858,8.3538814 c 0.8710358,0 1.5771506,0.7061143 1.5771506,1.5771503 0,-0.871036 0.7061143,-1.5771503 1.5771506,-1.5771503 -0.8710363,0 -1.5771506,-0.7061149 -1.5771506,-1.5771511 0,0.8710362 -0.7061148,1.5771511 -1.5771506,1.5771511 z"
         id="path1-6-8"
         style="display:inline;fill:none;stroke:#ffffff;stroke-width:1.36335;stroke-linecap:round;stroke-linejoin:round;stroke-dasharray:none;stroke-opacity:1" /></g></g></svg>
